<?xml version="1.0" standalone="no"?>
<!DOCTYPE svg PUBLIC "-//W3C//DTD SVG 20010904//EN"
 "http://www.w3.org/TR/2001/REC-SVG-20010904/DTD/svg10.dtd">
<svg version="1.0" xmlns="http://www.w3.org/2000/svg"
 width="523.70pt" height="719.65pt" viewBox="108.30 106.00 523.70 719.65"
 preserveAspectRatio="xMidYMid meet">
<metadata>
Created by potrace 1.11, written by Peter Selinger 2001-2013
</metadata>
<g transform="translate(0.000000,960.000000) scale(0.600000,-0.600000)"
fill="#000000" stroke="none">
<path d="M811 1208 c-161 -178 -317 -370 -339 -418 -13 -30 -47 -104 -74 -165
-48 -103 -50 -111 -38 -145 7 -19 24 -47 38 -62 20 -22 28 -25 40 -16 7 7 47
79 88 160 43 86 82 151 92 154 37 12 50 25 120 130 40 60 85 121 99 136 29 30
42 84 43 175 0 65 -6 93 -21 93 -5 0 -27 -19 -48 -42z"/>
</g>
</svg>
