<?xml version="1.0" standalone="no"?>
<!DOCTYPE svg PUBLIC "-//W3C//DTD SVG 20010904//EN"
 "http://www.w3.org/TR/2001/REC-SVG-20010904/DTD/svg10.dtd">
<svg version="1.0" xmlns="http://www.w3.org/2000/svg"
 width="647.55pt" height="1018.82pt" viewBox="-3.79 -10.65 647.55 1018.82"
 preserveAspectRatio="xMidYMid meet">
<metadata>
Created by potrace 1.11, written by Peter Selinger 2001-2013
</metadata>
<g transform="translate(0.000000,1056.000000) scale(0.600000,-0.600000)"
fill="#000000" stroke="none">
<path d="M831 1603 c-32 -6 -133 -108 -161 -162 -12 -24 -44 -108 -71 -187
-59 -174 -138 -353 -175 -397 -37 -44 -51 -81 -75 -200 -24 -119 -62 -203
-129 -282 -57 -67 -64 -88 -40 -110 16 -15 24 -15 57 -5 55 18 72 36 108 115
30 63 93 235 116 310 10 32 29 64 71 117 14 18 51 98 81 178 55 145 133 319
159 353 9 12 31 20 62 23 27 3 53 7 59 11 9 5 6 40 -9 136 -4 24 -1 48 6 63 8
13 11 26 9 28 -9 8 -45 13 -68 9z"/>
</g>
</svg>
