<?xml version="1.0" standalone="no"?>
<!DOCTYPE svg PUBLIC "-//W3C//DTD SVG 20010904//EN"
 "http://www.w3.org/TR/2001/REC-SVG-20010904/DTD/svg10.dtd">
<svg version="1.0" xmlns="http://www.w3.org/2000/svg"
 width="834.17pt" height="692.77pt" viewBox="-38.00 4.00 834.17 692.77"
 preserveAspectRatio="xMidYMid meet">
<metadata>
Created by potrace 1.11, written by Peter Selinger 2001-2013
</metadata>
<g transform="translate(0.000000,720.000000) scale(0.600000,-0.600000)"
fill="#000000" stroke="none">
<path d="M355 1006 c-38 -17 -84 -69 -152 -173 -76 -117 -93 -157 -93 -230 0
-58 2 -63 22 -63 13 0 37 18 62 46 111 125 143 154 169 154 37 0 73 -51 88
-125 17 -85 9 -106 -51 -139 l-51 -28 3 -106 c3 -94 5 -107 21 -110 26 -5 84
43 108 90 32 62 61 222 54 288 -12 102 -56 343 -66 362 -9 17 -59 48 -76 48
-4 -1 -22 -7 -38 -14z"/>
<path d="M936 937 c-41 -54 -94 -178 -106 -250 -7 -40 -11 -129 -8 -215 4
-161 17 -206 70 -245 24 -18 31 -19 71 -7 94 26 163 115 183 234 18 106 6 119
-57 61 -39 -35 -74 -43 -124 -27 -46 15 -58 30 -66 78 -10 63 5 119 37 140 23
15 28 15 76 -5 60 -25 91 -27 112 -5 17 17 15 26 -18 62 -16 18 -20 34 -18 79
3 66 -14 98 -63 119 -49 20 -61 18 -89 -19z"/>
</g>
</svg>
