<?xml version="1.0" standalone="no"?>
<!DOCTYPE svg PUBLIC "-//W3C//DTD SVG 20010904//EN"
 "http://www.w3.org/TR/2001/REC-SVG-20010904/DTD/svg10.dtd">
<svg version="1.0" xmlns="http://www.w3.org/2000/svg"
 width="511.51pt" height="745.10pt" viewBox="107.75 29.13 511.51 745.10"
 preserveAspectRatio="xMidYMid meet">
<metadata>
Created by potrace 1.11, written by Peter Selinger 2001-2013
</metadata>
<g transform="translate(0.000000,840.000000) scale(0.600000,-0.600000)"
fill="#000000" stroke="none">
<path d="M636 1128 c-103 -117 -166 -242 -231 -465 -26 -90 -61 -343 -50 -371
5 -13 8 -12 25 3 11 10 20 29 20 41 0 56 69 272 119 373 32 65 93 151 117 164
35 20 56 -28 78 -183 18 -124 51 -296 67 -346 10 -32 29 -43 62 -36 16 3 18
11 14 50 -2 26 -11 81 -20 122 -29 134 -66 392 -76 519 -9 127 -25 171 -63
179 -9 2 -37 -21 -62 -50z"/>
</g>
</svg>
