<?xml version="1.0" standalone="no"?>
<!DOCTYPE svg PUBLIC "-//W3C//DTD SVG 20010904//EN"
 "http://www.w3.org/TR/2001/REC-SVG-20010904/DTD/svg10.dtd">
<svg version="1.0" xmlns="http://www.w3.org/2000/svg"
 width="635.98pt" height="655.43pt" viewBox="82.42 64.74 635.98 655.43"
 preserveAspectRatio="xMidYMid meet">
<metadata>
Created by potrace 1.11, written by Peter Selinger 2001-2013
</metadata>
<g transform="translate(0.000000,840.000000) scale(0.600000,-0.600000)"
fill="#000000" stroke="none">
<path d="M788 1085 c-54 -40 -103 -99 -198 -240 -37 -56 -109 -152 -159 -215
-90 -113 -128 -189 -119 -238 5 -27 48 -25 103 5 53 29 75 59 239 316 42 67
74 107 83 105 8 -2 29 -45 48 -101 40 -116 67 -165 130 -235 71 -79 103 -68
107 36 l2 63 -55 52 c-48 46 -59 64 -82 134 -32 96 -32 109 -11 221 25 135 0
162 -88 97z"/>
</g>
</svg>
