<?xml version="1.0" standalone="no"?>
<!DOCTYPE svg PUBLIC "-//W3C//DTD SVG 20010904//EN"
 "http://www.w3.org/TR/2001/REC-SVG-20010904/DTD/svg10.dtd">
<svg version="1.0" xmlns="http://www.w3.org/2000/svg"
 width="754.31pt" height="1149.02pt" viewBox="130.09 88.51 754.31 1149.02"
 preserveAspectRatio="xMidYMid meet">
<metadata>
Created by potrace 1.11, written by Peter Selinger 2001-2013
</metadata>
<g transform="translate(0.000000,1320.000000) scale(0.600000,-0.600000)"
fill="#000000" stroke="none">
<path d="M864 1865 c-18 -8 -48 -33 -69 -57 -40 -47 -143 -250 -170 -338 -10
-30 -21 -64 -25 -75 -10 -27 -35 -115 -60 -215 -6 -25 -16 -59 -21 -76 -5 -17
-9 -40 -9 -52 0 -11 -4 -24 -10 -27 -6 -3 -10 -19 -10 -35 0 -16 -4 -31 -9
-34 -5 -3 -11 -20 -14 -38 -3 -18 -11 -55 -16 -83 -6 -27 -16 -90 -22 -140 -6
-49 -15 -119 -20 -155 -5 -36 -12 -103 -15 -148 -7 -83 -6 -84 16 -80 25 3 41
39 59 133 7 33 16 80 22 105 5 25 13 124 18 221 7 151 11 181 28 205 32 47 79
155 94 214 22 88 111 262 181 351 56 72 161 99 235 58 57 -31 80 -62 88 -119
8 -60 -1 -75 -53 -84 -53 -8 -81 -32 -107 -90 -29 -66 -41 -266 -15 -266 5 0
18 20 28 44 22 49 77 96 114 96 27 0 100 -45 137 -84 23 -24 26 -25 43 -9 35
32 18 211 -28 280 -8 13 -26 28 -40 33 l-25 10 8 93 c4 50 8 134 7 185 -1 106
-12 125 -96 168 -39 20 -61 24 -130 23 -47 0 -97 -7 -114 -14z"/>
</g>
</svg>
