<?xml version="1.0" standalone="no"?>
<!DOCTYPE svg PUBLIC "-//W3C//DTD SVG 20010904//EN"
 "http://www.w3.org/TR/2001/REC-SVG-20010904/DTD/svg10.dtd">
<svg version="1.0" xmlns="http://www.w3.org/2000/svg"
 width="751.32pt" height="615.26pt" viewBox="109.14 88.58 751.32 615.26"
 preserveAspectRatio="xMidYMid meet">
<metadata>
Created by potrace 1.11, written by Peter Selinger 2001-2013
</metadata>
<g transform="translate(0.000000,864.000000) scale(0.600000,-0.600000)"
fill="#000000" stroke="none">
<path d="M1030 1096 c-128 -45 -257 -124 -347 -212 -89 -89 -301 -330 -318
-364 -14 -27 -14 -30 7 -50 12 -11 27 -20 32 -20 32 2 86 42 125 95 100 133
264 273 399 340 94 47 148 54 186 24 l29 -23 -7 -108 c-3 -60 -11 -128 -16
-151 -5 -23 -13 -62 -18 -86 -27 -122 67 -139 101 -19 9 29 20 80 27 113 6 33
15 79 20 103 24 102 6 266 -35 329 -16 24 -75 53 -104 52 -9 0 -45 -10 -81
-23z"/>
</g>
</svg>
