<?xml version="1.0" standalone="no"?>
<!DOCTYPE svg PUBLIC "-//W3C//DTD SVG 20010904//EN"
 "http://www.w3.org/TR/2001/REC-SVG-20010904/DTD/svg10.dtd">
<svg version="1.0" xmlns="http://www.w3.org/2000/svg"
 width="659.94pt" height="1761.26pt" viewBox="127.51 532.00 659.94 1761.26"
 preserveAspectRatio="xMidYMid meet">
<metadata>
Created by potrace 1.11, written by Peter Selinger 2001-2013
</metadata>
<g transform="translate(0.000000,2376.000000) scale(0.600000,-0.600000)"
fill="#000000" stroke="none">
<path d="M1103 2888 c-21 -27 -27 -65 -53 -363 -6 -66 -15 -146 -20 -177 -6
-32 -14 -84 -20 -115 -5 -32 -14 -98 -20 -148 -6 -49 -15 -127 -20 -172 -29
-247 -41 -345 -60 -523 -35 -323 -49 -424 -79 -567 -18 -90 -46 -129 -126
-174 -31 -17 -56 -22 -109 -23 -66 0 -69 1 -102 37 -32 34 -34 41 -34 104 0
73 10 107 79 262 49 109 53 164 13 169 -44 7 -98 -66 -131 -178 -7 -25 -18
-58 -25 -75 -7 -18 -11 -94 -10 -195 1 -141 4 -173 22 -218 32 -82 79 -148
130 -182 85 -56 119 -53 196 20 98 93 152 214 195 440 11 59 17 128 32 370 5
85 13 191 18 235 12 98 29 244 42 350 5 44 14 116 19 160 13 114 28 213 40
265 5 25 12 106 16 180 3 74 8 138 10 142 6 9 21 169 31 311 4 64 3 77 -10 77
-8 0 -19 -6 -24 -12z"/>
</g>
</svg>
