<?xml version="1.0" standalone="no"?>
<!DOCTYPE svg PUBLIC "-//W3C//DTD SVG 20010904//EN"
 "http://www.w3.org/TR/2001/REC-SVG-20010904/DTD/svg10.dtd">
<svg version="1.0" xmlns="http://www.w3.org/2000/svg"
 width="561.42pt" height="1124.02pt" viewBox="130.00 137.16 561.42 1124.02"
 preserveAspectRatio="xMidYMid meet">
<metadata>
Created by potrace 1.11, written by Peter Selinger 2001-2013
</metadata>
<g transform="translate(0.000000,1368.000000) scale(0.600000,-0.600000)"
fill="#000000" stroke="none">
<path d="M913 1853 c-13 -16 -23 -36 -23 -45 0 -9 -4 -19 -9 -22 -15 -9 -35
-152 -51 -361 -5 -71 -15 -195 -21 -275 -6 -80 -13 -185 -14 -235 -2 -49 -3
-95 -4 -101 -1 -5 -20 -18 -43 -29 -24 -10 -74 -32 -113 -48 -103 -45 -188
-103 -219 -150 -23 -36 -26 -51 -26 -122 0 -70 3 -85 20 -100 18 -17 25 -17
58 -6 20 7 102 49 181 93 79 43 150 77 156 74 15 -5 26 -56 18 -84 -9 -34 22
-38 62 -8 58 45 73 146 24 161 -20 7 -21 11 -15 99 4 50 10 106 13 124 5 30 3
32 -22 32 -26 0 -27 2 -21 38 4 20 11 96 17 167 46 636 45 629 83 704 24 45
18 115 -9 119 -12 1 -29 -9 -42 -25z"/>
</g>
</svg>
