<?xml version="1.0" standalone="no"?>
<!DOCTYPE svg PUBLIC "-//W3C//DTD SVG 20010904//EN"
 "http://www.w3.org/TR/2001/REC-SVG-20010904/DTD/svg10.dtd">
<svg version="1.0" xmlns="http://www.w3.org/2000/svg"
 width="614.92pt" height="584.72pt" viewBox="55.59 64.00 614.92 584.72"
 preserveAspectRatio="xMidYMid meet">
<metadata>
Created by potrace 1.11, written by Peter Selinger 2001-2013
</metadata>
<g transform="translate(0.000000,720.000000) scale(0.600000,-0.600000)"
fill="#000000" stroke="none">
<path d="M325 886 c-38 -50 -69 -144 -56 -172 10 -22 31 -28 126 -36 29 -3 30
-5 29 -48 -1 -25 -13 -70 -26 -100 -38 -83 -46 -110 -51 -166 -7 -63 3 -82 35
-67 67 32 221 97 423 178 155 62 141 44 137 165 -2 58 -7 109 -12 114 -15 15
-239 -75 -322 -131 -81 -55 -158 -62 -143 -13 11 36 23 213 16 234 -16 40 -61
76 -97 76 -26 0 -39 -7 -59 -34z"/>
</g>
</svg>
