<?xml version="1.0" standalone="no"?>
<!DOCTYPE svg PUBLIC "-//W3C//DTD SVG 20010904//EN"
 "http://www.w3.org/TR/2001/REC-SVG-20010904/DTD/svg10.dtd">
<svg version="1.0" xmlns="http://www.w3.org/2000/svg"
 width="719.20pt" height="1335.98pt" viewBox="128.80 172.02 719.20 1335.98"
 preserveAspectRatio="xMidYMid meet">
<metadata>
Created by potrace 1.11, written by Peter Selinger 2001-2013
</metadata>
<g transform="translate(0.000000,1656.000000) scale(0.600000,-0.600000)"
fill="#000000" stroke="none">
<path d="M982 2255 c-121 -137 -216 -340 -283 -600 -15 -56 -29 -114 -39 -155
-5 -19 -14 -55 -20 -80 -6 -25 -16 -62 -21 -82 -5 -21 -14 -57 -20 -80 -24
-90 -28 -104 -37 -143 -37 -152 -39 -183 -20 -246 21 -71 57 -36 58 55 0 37
11 90 29 145 15 47 34 106 41 131 19 68 32 112 40 140 4 14 13 45 20 70 7 25
16 54 20 65 4 11 13 40 20 65 44 160 85 271 113 305 26 32 33 35 81 35 69 0
101 -28 109 -98 4 -26 11 -69 17 -97 5 -27 13 -77 16 -110 5 -54 28 -139 55
-202 19 -47 27 -69 33 -85 3 -10 15 -18 26 -18 18 0 20 6 20 75 0 95 -10 141
-92 416 -9 30 -7 42 7 67 17 28 17 33 0 103 -31 132 -54 253 -55 282 0 15 -7
41 -15 57 -23 44 -55 40 -103 -15z"/>
<path d="M451 681 c-39 -39 -42 -49 -58 -187 l-5 -52 63 5 c43 4 82 0 118 -11
30 -9 56 -16 59 -16 9 0 -12 188 -25 220 -36 89 -90 103 -152 41z"/>
</g>
</svg>
