<?xml version="1.0" standalone="no"?>
<!DOCTYPE svg PUBLIC "-//W3C//DTD SVG 20010904//EN"
 "http://www.w3.org/TR/2001/REC-SVG-20010904/DTD/svg10.dtd">
<svg version="1.0" xmlns="http://www.w3.org/2000/svg"
 width="760.77pt" height="1421.53pt" viewBox="52.00 155.31 760.77 1421.53"
 preserveAspectRatio="xMidYMid meet">
<metadata>
Created by potrace 1.11, written by Peter Selinger 2001-2013
</metadata>
<g transform="translate(0.000000,1704.000000) scale(0.600000,-0.600000)"
fill="#000000" stroke="none">
<path d="M918 2403 c-22 -6 -88 -109 -136 -213 -74 -159 -92 -201 -92 -205 0
-3 -8 -24 -19 -48 -23 -52 -56 -139 -72 -192 -6 -22 -15 -49 -20 -60 -4 -11
-10 -31 -13 -45 -2 -14 -10 -43 -16 -65 -12 -40 -18 -70 -40 -180 -19 -97 -29
-155 -41 -235 -6 -41 -14 -100 -19 -130 -20 -126 -22 -157 -11 -164 25 -16 59
126 98 407 3 20 9 40 14 43 5 3 9 15 9 28 0 12 4 26 8 31 5 6 14 30 21 55 7
25 17 54 21 65 4 11 13 40 20 65 7 25 16 56 20 70 44 144 55 176 62 184 4 6 8
16 8 23 0 7 11 36 24 65 13 29 39 89 57 133 36 88 67 145 78 145 5 0 15 -8 24
-18 23 -25 22 -85 -2 -106 -30 -28 -39 -136 -11 -136 5 0 25 17 44 37 55 58
61 43 61 -150 0 -161 7 -246 26 -322 17 -67 30 -109 39 -130 5 -11 20 -54 34
-95 25 -77 41 -98 70 -87 24 10 23 160 -3 219 -33 78 -62 143 -72 160 -5 10
-9 135 -9 278 l0 260 -25 22 c-14 12 -25 31 -25 42 0 50 -35 203 -52 229 -19
27 -26 29 -60 20z"/>
<path d="M394 704 c-23 -8 -51 -26 -64 -39 -22 -23 -22 -26 -7 -62 17 -43 13
-56 -35 -111 -15 -18 -28 -36 -28 -41 0 -5 19 -21 43 -36 82 -55 173 -32 217
55 15 29 20 59 20 114 0 66 -3 78 -26 105 -29 35 -55 38 -120 15z"/>
</g>
</svg>
