<?xml version="1.0" standalone="no"?>
<!DOCTYPE svg PUBLIC "-//W3C//DTD SVG 20010904//EN"
 "http://www.w3.org/TR/2001/REC-SVG-20010904/DTD/svg10.dtd">
<svg version="1.0" xmlns="http://www.w3.org/2000/svg"
 width="578.86pt" height="1255.62pt" viewBox="97.46 53.27 578.86 1255.62"
 preserveAspectRatio="xMidYMid meet">
<metadata>
Created by potrace 1.11, written by Peter Selinger 2001-2013
</metadata>
<g transform="translate(0.000000,1464.000000) scale(0.600000,-0.600000)"
fill="#000000" stroke="none">
<path d="M624 2165 c-34 -15 -48 -30 -57 -60 -3 -11 -15 -47 -28 -80 -32 -87
-46 -218 -54 -495 -7 -253 -10 -273 -77 -555 -13 -57 -26 -124 -60 -325 -6
-36 -11 -99 -12 -140 -1 -73 0 -75 24 -78 30 -3 52 34 68 118 6 30 16 82 22
115 6 33 15 76 20 95 5 19 12 75 15 123 8 92 26 134 55 122 8 -3 30 -25 48
-49 18 -25 48 -51 66 -60 59 -28 130 -18 164 23 7 9 36 63 64 120 63 130 82
217 67 311 -27 170 -90 215 -288 209 l-106 -4 3 100 c3 112 9 142 61 350 11
42 25 66 55 94 30 29 33 49 9 67 -21 16 -20 16 -59 -1z m156 -837 c88 -21 123
-85 85 -157 -19 -37 -71 -81 -96 -81 -36 0 -116 48 -156 94 -38 43 -68 123
-56 152 5 14 153 9 223 -8z"/>
</g>
</svg>
