<?xml version="1.0" standalone="no"?>
<!DOCTYPE svg PUBLIC "-//W3C//DTD SVG 20010904//EN"
 "http://www.w3.org/TR/2001/REC-SVG-20010904/DTD/svg10.dtd">
<svg version="1.0" xmlns="http://www.w3.org/2000/svg"
 width="1159.34pt" height="1433.98pt" viewBox="36.05 195.82 1159.34 1433.98"
 preserveAspectRatio="xMidYMid meet">
<metadata>
Created by potrace 1.11, written by Peter Selinger 2001-2013
</metadata>
<g transform="translate(0.000000,1728.000000) scale(0.600000,-0.600000)"
fill="#000000" stroke="none">
<path d="M1777 2357 c-10 -12 -32 -51 -49 -87 -152 -324 -436 -897 -479 -968
-21 -35 -39 -66 -39 -68 0 -3 -11 -21 -24 -42 -12 -20 -54 -95 -91 -167 -38
-71 -79 -147 -92 -167 -25 -40 -118 -119 -168 -142 -103 -47 -185 -72 -208
-63 -10 3 -16 32 -20 88 -8 103 -25 124 -93 123 -53 -1 -86 -28 -141 -114 -19
-30 -60 -81 -90 -112 -60 -60 -65 -88 -18 -88 27 0 85 35 161 97 23 18 50 33
61 33 51 0 76 -92 66 -242 l-6 -101 34 7 c18 3 38 14 43 24 5 9 22 29 37 45
24 23 36 27 86 27 76 1 129 25 204 96 84 81 163 215 239 406 11 25 77 163 148
305 71 142 143 287 160 323 16 36 56 119 87 185 111 235 135 288 160 355 9 25
21 54 25 65 62 146 66 255 7 182z"/>
</g>
</svg>
