<?xml version="1.0" standalone="no"?>
<!DOCTYPE svg PUBLIC "-//W3C//DTD SVG 20010904//EN"
 "http://www.w3.org/TR/2001/REC-SVG-20010904/DTD/svg10.dtd">
<svg version="1.0" xmlns="http://www.w3.org/2000/svg"
 width="909.71pt" height="1507.81pt" viewBox="34.00 88.98 909.71 1507.81"
 preserveAspectRatio="xMidYMid meet">
<metadata>
Created by potrace 1.11, written by Peter Selinger 2001-2013
</metadata>
<g transform="translate(0.000000,1632.000000) scale(0.600000,-0.600000)"
fill="#000000" stroke="none">
<path d="M682 2375 c-60 -76 -168 -349 -213 -540 -6 -22 -14 -56 -19 -75 -5
-19 -14 -54 -20 -77 -5 -24 -15 -62 -21 -85 -24 -97 -32 -141 -59 -303 -40
-242 -45 -261 -73 -304 -15 -23 -32 -41 -37 -41 -6 0 -10 -9 -10 -20 0 -15 7
-20 29 -20 49 0 76 48 112 193 5 20 14 56 20 80 6 23 15 59 20 80 5 20 13 54
18 75 6 20 14 57 20 82 36 164 47 208 71 275 10 28 24 84 31 125 12 67 17 79
60 123 41 42 50 47 67 38 30 -16 33 -44 34 -305 0 -130 4 -239 9 -242 4 -2 16
0 26 5 10 5 50 22 88 37 39 15 84 35 101 45 46 25 87 32 107 17 16 -12 17 -22
7 -123 -18 -172 -19 -160 13 -163 31 -4 95 39 162 107 47 49 81 54 96 14 7
-18 9 -97 5 -223 -15 -496 -18 -902 -7 -913 16 -16 38 8 46 51 4 20 9 146 10
278 2 133 9 276 15 318 7 49 11 205 9 444 -2 353 -8 433 -34 432 -5 -1 -26
-21 -45 -46 -44 -56 -135 -144 -149 -144 -6 0 -11 -4 -11 -10 0 -5 -11 -10
-24 -10 -21 0 -24 5 -30 61 -3 34 -6 103 -6 154 0 83 -2 94 -23 113 -41 38
-77 29 -162 -42 -77 -65 -114 -88 -129 -83 -11 5 -15 37 -16 149 0 79 -4 222
-8 318 l-7 175 -26 3 c-19 2 -33 -4 -47 -23z"/>
</g>
</svg>
