<?xml version="1.0" standalone="no"?>
<!DOCTYPE svg PUBLIC "-//W3C//DTD SVG 20010904//EN"
 "http://www.w3.org/TR/2001/REC-SVG-20010904/DTD/svg10.dtd">
<svg version="1.0" xmlns="http://www.w3.org/2000/svg"
 width="778.13pt" height="1281.81pt" viewBox="56.53 100.67 778.13 1281.81"
 preserveAspectRatio="xMidYMid meet">
<metadata>
Created by potrace 1.11, written by Peter Selinger 2001-2013
</metadata>
<g transform="translate(0.000000,1488.000000) scale(0.600000,-0.600000)"
fill="#000000" stroke="none">
<path d="M1054 2117 c-17 -11 -41 -36 -54 -53 -45 -66 -157 -360 -175 -459 -4
-22 -12 -87 -19 -145 l-11 -105 -120 0 -120 0 -7 -50 c-4 -27 -11 -90 -16
-140 -6 -49 -17 -108 -25 -130 l-15 -40 -79 0 -78 0 -3 -45 c-6 -114 -22 -242
-30 -253 -23 -30 -46 -307 -28 -336 20 -32 61 5 69 64 23 159 30 215 31 250
l1 40 110 0 c61 1 123 4 138 8 39 11 55 55 52 145 -3 66 -6 77 -32 105 -51 55
-73 89 -73 113 0 31 13 37 37 15 15 -15 40 -19 113 -22 l93 -4 18 35 c14 27
19 68 24 180 3 80 10 161 15 180 4 19 13 60 20 90 26 129 52 200 72 200 19 0
117 -37 133 -50 25 -20 44 -250 53 -635 5 -177 11 -280 17 -279 6 1 20 21 33
45 20 36 23 52 17 99 -3 30 -10 222 -14 425 -9 378 -35 708 -59 753 -16 28
-47 28 -88 -1z"/>
</g>
</svg>
