<?xml version="1.0" standalone="no"?>
<!DOCTYPE svg PUBLIC "-//W3C//DTD SVG 20010904//EN"
 "http://www.w3.org/TR/2001/REC-SVG-20010904/DTD/svg10.dtd">
<svg version="1.0" xmlns="http://www.w3.org/2000/svg"
 width="721.99pt" height="1641.55pt" viewBox="59.52 160.45 721.99 1641.55"
 preserveAspectRatio="xMidYMid meet">
<metadata>
Created by potrace 1.11, written by Peter Selinger 2001-2013
</metadata>
<g transform="translate(0.000000,1896.000000) scale(0.600000,-0.600000)"
fill="#000000" stroke="none">
<path d="M1048 2703 c-15 -19 -28 -51 -47 -118 -6 -22 -27 -96 -47 -165 -69
-242 -75 -266 -100 -370 -14 -58 -30 -118 -35 -135 -5 -16 -12 -86 -15 -155
-5 -136 -21 -187 -58 -192 -11 -2 -50 0 -86 4 -36 4 -90 11 -120 14 -30 3 -59
12 -65 18 -6 8 -8 64 -4 147 4 105 2 137 -8 149 -12 13 -16 12 -33 -10 -27
-36 -32 -60 -40 -225 -6 -130 -10 -157 -32 -205 -21 -46 -26 -76 -32 -180 -8
-164 -23 -363 -36 -475 -17 -146 -24 -475 -10 -475 33 0 37 17 60 225 5 44 14
112 20 150 19 127 31 268 39 445 5 128 11 185 23 213 l17 37 84 0 c106 0 123
-13 112 -87 -10 -70 -7 -278 6 -328 14 -57 79 -113 115 -99 13 5 71 56 129
113 92 92 106 110 121 160 15 52 15 61 -1 129 -13 55 -15 79 -7 96 28 63 -16
145 -88 163 l-35 9 4 150 c4 139 5 151 28 181 22 28 32 59 64 188 6 22 31 101
55 175 112 334 124 401 78 451 -21 24 -37 24 -56 2z m-261 -1318 c17 -9 38
-26 46 -39 10 -15 30 -26 54 -31 56 -10 63 -20 63 -86 0 -62 -13 -79 -59 -79
-12 0 -41 -9 -65 -21 -25 -12 -59 -19 -78 -17 l-33 3 -3 124 c-2 105 0 127 14
142 21 23 23 23 61 4z"/>
</g>
</svg>
