<?xml version="1.0" standalone="no"?>
<!DOCTYPE svg PUBLIC "-//W3C//DTD SVG 20010904//EN"
 "http://www.w3.org/TR/2001/REC-SVG-20010904/DTD/svg10.dtd">
<svg version="1.0" xmlns="http://www.w3.org/2000/svg"
 width="910.22pt" height="1056.73pt" viewBox="81.78 -8.00 910.22 1056.73"
 preserveAspectRatio="xMidYMid meet">
<metadata>
Created by potrace 1.11, written by Peter Selinger 2001-2013
</metadata>
<g transform="translate(0.000000,1104.000000) scale(0.600000,-0.600000)"
fill="#000000" stroke="none">
<path d="M1422 1653 c-6 -16 -16 -46 -24 -68 -17 -54 -108 -201 -240 -386
-130 -182 -252 -367 -331 -500 -31 -53 -64 -102 -72 -109 -30 -25 -40 4 -37
103 2 51 -2 160 -8 242 -18 248 -42 272 -122 119 -16 -33 -45 -86 -63 -119
-59 -106 -144 -327 -184 -475 -7 -25 -17 -59 -22 -76 -14 -46 -12 -114 4 -114
23 0 77 74 77 105 0 9 24 66 54 128 62 132 80 178 104 271 20 78 43 103 66 71
8 -11 18 -40 21 -65 3 -25 10 -67 15 -93 6 -27 10 -131 10 -232 0 -101 4 -186
8 -189 13 -8 68 70 225 319 79 127 189 298 244 380 131 196 236 379 303 528
23 51 30 82 30 127 0 57 -1 60 -24 60 -17 0 -27 -8 -34 -27z"/>
</g>
</svg>
