<?xml version="1.0" standalone="no"?>
<!DOCTYPE svg PUBLIC "-//W3C//DTD SVG 20010904//EN"
 "http://www.w3.org/TR/2001/REC-SVG-20010904/DTD/svg10.dtd">
<svg version="1.0" xmlns="http://www.w3.org/2000/svg"
 width="645.13pt" height="942.28pt" viewBox="70.00 76.01 645.13 942.28"
 preserveAspectRatio="xMidYMid meet">
<metadata>
Created by potrace 1.11, written by Peter Selinger 2001-2013
</metadata>
<g transform="translate(0.000000,1128.000000) scale(0.600000,-0.600000)"
fill="#000000" stroke="none">
<path d="M542 1546 c-42 -48 -86 -115 -102 -156 -8 -19 -27 -57 -42 -83 -15
-26 -28 -51 -28 -55 0 -4 -18 -31 -40 -60 -22 -29 -40 -57 -40 -64 0 -14 31
-37 51 -38 22 0 73 67 139 184 69 122 96 156 109 137 5 -7 12 -86 15 -175 13
-308 47 -453 92 -391 7 10 18 41 24 69 6 28 24 74 40 101 16 28 41 73 55 102
54 108 71 92 63 -60 -3 -58 0 -156 8 -227 13 -118 19 -156 44 -275 5 -27 13
-67 16 -88 4 -21 11 -40 15 -43 5 -3 9 -15 9 -27 0 -29 38 -55 46 -32 4 8 3
23 -1 33 -4 9 -11 51 -15 92 -5 41 -15 107 -22 145 -14 80 -16 539 -3 706 5
71 4 108 -3 112 -21 14 -104 -89 -226 -280 -25 -40 -50 -73 -55 -73 -6 0 -12
68 -14 158 -6 185 -11 223 -39 280 -27 53 -54 56 -96 8z"/>
</g>
</svg>
