<?xml version="1.0" standalone="no"?>
<!DOCTYPE svg PUBLIC "-//W3C//DTD SVG 20010904//EN"
 "http://www.w3.org/TR/2001/REC-SVG-20010904/DTD/svg10.dtd">
<svg version="1.0" xmlns="http://www.w3.org/2000/svg"
 width="676.49pt" height="1011.46pt" viewBox="50.62 131.14 676.49 1011.46"
 preserveAspectRatio="xMidYMid meet">
<metadata>
Created by potrace 1.11, written by Peter Selinger 2001-2013
</metadata>
<g transform="translate(0.000000,1200.000000) scale(0.600000,-0.600000)"
fill="#000000" stroke="none">
<path d="M426 1600 c-56 -17 -85 -60 -106 -160 -6 -30 -16 -71 -21 -91 -5 -20
-9 -50 -9 -67 0 -17 -4 -52 -10 -79 -17 -82 -30 -454 -17 -475 14 -22 38 -31
60 -22 13 5 16 38 20 227 3 122 8 240 11 262 22 144 29 182 36 200 4 11 14 40
21 65 16 58 26 70 55 70 36 0 74 21 74 41 0 34 -52 47 -114 29z"/>
<path d="M602 1358 c-6 -14 -13 -132 -16 -298 -6 -244 -5 -278 10 -298 14 -20
21 -23 58 -17 66 12 113 41 206 132 85 81 89 83 100 63 9 -16 9 -52 1 -140 -6
-65 -11 -211 -11 -325 l0 -206 22 3 c17 2 25 12 31 43 13 62 26 303 33 600 5
233 3 275 -10 308 -9 20 -20 37 -24 37 -14 0 -60 -46 -96 -97 -40 -57 -224
-233 -242 -233 -18 0 -24 88 -17 249 3 81 3 160 -1 174 -8 33 -29 35 -44 5z"/>
</g>
</svg>
