<?xml version="1.0" standalone="no"?>
<!DOCTYPE svg PUBLIC "-//W3C//DTD SVG 20010904//EN"
 "http://www.w3.org/TR/2001/REC-SVG-20010904/DTD/svg10.dtd">
<svg version="1.0" xmlns="http://www.w3.org/2000/svg"
 width="992.88pt" height="2311.66pt" viewBox="130.00 136.90 992.88 2311.66"
 preserveAspectRatio="xMidYMid meet">
<metadata>
Created by potrace 1.11, written by Peter Selinger 2001-2013
</metadata>
<g transform="translate(0.000000,2568.000000) scale(0.600000,-0.600000)"
fill="#000000" stroke="none">
<path d="M1579 3853 c-14 -15 -31 -48 -39 -73 -7 -25 -19 -63 -25 -85 -7 -22
-20 -71 -29 -110 -30 -127 -38 -160 -46 -190 -20 -72 -44 -169 -59 -235 -15
-70 -31 -142 -41 -180 -4 -19 -13 -60 -20 -90 -14 -69 -23 -112 -50 -225 -37
-160 -51 -220 -70 -320 -6 -33 -16 -78 -20 -100 -5 -22 -12 -56 -15 -75 -3
-19 -10 -57 -16 -85 -5 -27 -12 -78 -16 -112 -4 -53 -3 -63 10 -63 22 0 53 48
61 95 53 285 58 304 96 377 75 147 99 247 100 412 0 70 6 116 19 155 10 31 24
76 31 101 7 25 16 56 20 70 4 14 13 59 20 100 15 100 49 223 80 295 5 11 36
84 70 162 39 91 60 152 58 170 -3 26 -7 28 -48 31 -39 2 -49 -1 -71 -25z"/>
<path d="M1030 1716 c-155 -79 -237 -126 -250 -141 -10 -12 -9 -22 5 -51 l17
-36 53 7 c53 6 54 6 68 -27 9 -18 19 -44 22 -58 10 -35 53 -78 84 -85 49 -10
83 8 108 56 20 40 22 58 23 195 0 134 -2 153 -18 167 -10 10 -21 17 -23 17 -2
0 -42 -20 -89 -44z"/>
<path d="M751 1127 c-25 -12 -71 -46 -103 -76 -57 -52 -72 -86 -43 -97 27 -11
28 -43 1 -75 -46 -54 -29 -79 53 -79 103 0 126 8 185 67 l56 54 0 73 c0 146
-45 186 -149 133z"/>
<path d="M426 667 c-22 -16 -35 -79 -36 -170 0 -59 3 -71 24 -92 13 -13 36
-27 50 -31 34 -8 144 16 170 37 18 15 19 20 8 56 -16 53 -15 82 3 117 8 15 15
32 15 37 0 17 -56 37 -124 44 -38 4 -74 9 -81 11 -6 3 -19 -2 -29 -9z"/>
</g>
</svg>
