<?xml version="1.0" standalone="no"?>
<!DOCTYPE svg PUBLIC "-//W3C//DTD SVG 20010904//EN"
 "http://www.w3.org/TR/2001/REC-SVG-20010904/DTD/svg10.dtd">
<svg version="1.0" xmlns="http://www.w3.org/2000/svg"
 width="1436.54pt" height="1621.67pt" viewBox="178.39 65.13 1436.54 1621.67"
 preserveAspectRatio="xMidYMid meet">
<metadata>
Created by potrace 1.11, written by Peter Selinger 2001-2013
</metadata>
<g transform="translate(0.000000,1776.000000) scale(0.600000,-0.600000)"
fill="#000000" stroke="none">
<path d="M2398 2608 c-99 -134 -117 -164 -213 -358 -63 -124 -108 -199 -172
-281 -47 -60 -54 -96 -25 -122 30 -28 57 -21 86 23 14 22 26 42 26 45 0 2 18
34 40 70 22 36 63 113 91 171 29 58 70 131 93 162 23 31 55 78 71 104 18 29
41 52 60 59 56 20 60 25 63 72 3 52 -24 120 -50 125 -11 2 -35 -21 -70 -70z"/>
<path d="M1719 1621 c-55 -27 -142 -87 -169 -116 -20 -22 -25 -37 -25 -83 0
-47 -5 -64 -28 -93 -30 -40 -34 -70 -12 -89 11 -9 25 -10 65 0 56 14 108 63
141 136 10 22 39 59 64 82 44 40 45 43 45 99 0 56 -11 83 -34 83 -6 -1 -27 -9
-47 -19z"/>
<path d="M1180 1063 c-19 -8 -61 -31 -93 -50 -75 -45 -96 -86 -110 -215 -10
-88 -9 -100 6 -115 15 -15 21 -15 87 7 41 14 98 44 138 72 128 94 136 106 147
241 l6 77 -73 -1 c-41 0 -88 -7 -108 -16z"/>
<path d="M590 657 c-102 -41 -101 -39 -94 -111 5 -44 2 -79 -10 -118 -19 -65
-20 -94 -5 -103 6 -4 51 -4 100 0 87 7 90 8 106 39 11 20 18 59 20 111 1 44 5
102 9 129 6 41 4 51 -11 63 -25 17 -49 15 -115 -10z"/>
</g>
</svg>
