<?xml version="1.0" standalone="no"?>
<!DOCTYPE svg PUBLIC "-//W3C//DTD SVG 20010904//EN"
 "http://www.w3.org/TR/2001/REC-SVG-20010904/DTD/svg10.dtd">
<svg version="1.0" xmlns="http://www.w3.org/2000/svg"
 width="777.34pt" height="2108.62pt" viewBox="117.86 268.50 777.34 2108.62"
 preserveAspectRatio="xMidYMid meet">
<metadata>
Created by potrace 1.11, written by Peter Selinger 2001-2013
</metadata>
<g transform="translate(0.000000,2448.000000) scale(0.600000,-0.600000)"
fill="#000000" stroke="none">
<path d="M1266 3428 c-3 -18 -11 -80 -16 -138 -16 -172 -37 -334 -60 -460 -9
-53 -18 -93 -40 -180 -5 -22 -14 -57 -19 -77 -16 -65 -55 -208 -82 -303 -38
-132 -61 -269 -54 -322 6 -43 4 -50 -21 -73 -22 -20 -37 -25 -82 -25 -49 0
-58 3 -86 33 -34 37 -70 122 -87 209 -11 55 -11 58 21 113 52 90 81 278 45
291 -19 7 -40 -9 -58 -45 -8 -14 -23 -42 -34 -61 -45 -78 -83 -232 -83 -331 1
-133 57 -370 113 -471 36 -66 117 -87 174 -45 50 36 157 129 169 146 12 18 34
208 34 290 0 72 26 231 51 316 66 223 72 252 94 450 3 28 10 75 15 105 20 110
45 333 56 493 5 62 3 91 -6 102 -20 24 -37 17 -44 -17z"/>
<path d="M553 1198 c-48 -53 -63 -91 -63 -163 0 -96 14 -115 85 -115 43 0 60
5 84 25 32 28 61 77 61 105 0 27 -25 80 -59 128 -36 49 -74 56 -108 20z"/>
<path d="M480 582 c-14 -2 -44 -12 -67 -23 -48 -22 -54 -41 -28 -103 13 -32
13 -40 -1 -75 -22 -56 -16 -85 20 -89 15 -2 41 2 56 8 15 6 47 13 71 15 43 3
44 4 52 46 4 24 6 74 5 111 -5 91 -33 120 -108 110z"/>
</g>
</svg>
