<?xml version="1.0" standalone="no"?>
<!DOCTYPE svg PUBLIC "-//W3C//DTD SVG 20010904//EN"
 "http://www.w3.org/TR/2001/REC-SVG-20010904/DTD/svg10.dtd">
<svg version="1.0" xmlns="http://www.w3.org/2000/svg"
 width="979.71pt" height="1280.50pt" viewBox="117.03 339.75 979.71 1280.50"
 preserveAspectRatio="xMidYMid meet">
<metadata>
Created by potrace 1.11, written by Peter Selinger 2001-2013
</metadata>
<g transform="translate(0.000000,1776.000000) scale(0.600000,-0.600000)"
fill="#000000" stroke="none">
<path d="M1610 2198 c-5 -13 -30 -72 -56 -133 -25 -60 -80 -189 -121 -285 -72
-170 -117 -255 -131 -248 -112 58 -153 73 -212 76 -118 7 -267 -63 -336 -157
-33 -47 -74 -153 -74 -194 0 -15 -31 -53 -95 -117 -101 -100 -164 -185 -149
-200 5 -5 40 -10 78 -12 l70 -3 -59 -35 c-33 -19 -69 -49 -81 -67 -25 -38 -62
-149 -72 -218 -9 -64 0 -167 14 -172 7 -2 26 31 44 74 81 197 117 246 194 257
61 9 120 -8 144 -42 10 -15 31 -58 47 -95 34 -82 50 -76 50 17 0 54 -6 75 -40
142 -37 72 -45 81 -94 107 -143 72 -135 130 27 210 111 54 165 57 237 12 69
-43 101 -88 124 -177 11 -42 26 -88 32 -102 16 -34 38 -41 43 -13 50 272 47
287 -70 378 -32 25 -60 53 -62 63 -5 23 41 98 80 132 44 37 117 69 130 56 6
-6 3 -32 -7 -72 -19 -73 -11 -92 29 -67 59 39 109 113 175 256 56 122 85 209
117 346 14 61 36 150 49 199 13 49 22 93 19 98 -10 16 -35 8 -44 -14z"/>
</g>
</svg>
