<?xml version="1.0" standalone="no"?>
<!DOCTYPE svg PUBLIC "-//W3C//DTD SVG 20010904//EN"
 "http://www.w3.org/TR/2001/REC-SVG-20010904/DTD/svg10.dtd">
<svg version="1.0" xmlns="http://www.w3.org/2000/svg"
 width="909.71pt" height="1297.48pt" viewBox="147.38 57.20 909.71 1297.48"
 preserveAspectRatio="xMidYMid meet">
<metadata>
Created by potrace 1.11, written by Peter Selinger 2001-2013
</metadata>
<g transform="translate(0.000000,1392.000000) scale(0.600000,-0.600000)"
fill="#000000" stroke="none">
<path d="M1092 2045 c-89 -27 -129 -76 -162 -199 -25 -94 -28 -314 -6 -400 31
-118 76 -189 141 -224 17 -9 68 -18 120 -21 l90 -6 -3 -40 c-5 -85 -35 -241
-59 -315 -23 -71 -57 -123 -122 -182 -83 -77 -249 -155 -312 -146 l-24 3 -8
205 c-7 173 -10 207 -24 218 -27 20 -39 15 -110 -44 -176 -147 -195 -177 -194
-312 1 -84 9 -111 30 -98 6 4 38 43 72 87 73 97 100 116 134 101 25 -11 25
-14 25 -129 -1 -65 -5 -138 -11 -163 -17 -77 -22 -137 -12 -143 13 -8 138 18
217 44 197 66 294 160 336 324 7 28 24 84 38 125 36 109 57 218 71 368 6 57
15 110 22 118 13 16 66 42 151 74 68 25 88 46 95 99 7 53 -11 95 -50 116 -31
16 -36 16 -100 0 -37 -9 -74 -14 -82 -11 -12 4 -15 27 -15 107 0 56 -4 118 -9
138 -6 20 -17 65 -27 101 -42 163 -115 234 -212 205z m90 -246 c57 -25 85
-111 90 -268 l3 -95 -45 -14 c-40 -12 -52 -12 -102 2 -75 22 -158 103 -158
154 0 90 51 180 122 215 39 19 59 21 90 6z"/>
</g>
</svg>
