<?xml version="1.0" standalone="no"?>
<!DOCTYPE svg PUBLIC "-//W3C//DTD SVG 20010904//EN"
 "http://www.w3.org/TR/2001/REC-SVG-20010904/DTD/svg10.dtd">
<svg version="1.0" xmlns="http://www.w3.org/2000/svg"
 width="1004.54pt" height="1727.66pt" viewBox="94.36 388.00 1004.54 1727.66"
 preserveAspectRatio="xMidYMid meet">
<metadata>
Created by potrace 1.11, written by Peter Selinger 2001-2013
</metadata>
<g transform="translate(0.000000,2208.000000) scale(0.600000,-0.600000)"
fill="#000000" stroke="none">
<path d="M1623 2838 c-18 -38 -30 -75 -53 -168 -5 -19 -14 -53 -19 -75 -11
-40 -24 -95 -42 -172 -24 -110 -29 -131 -38 -168 -5 -22 -15 -58 -21 -80 -6
-22 -15 -56 -20 -75 -5 -19 -13 -52 -19 -72 -6 -21 -15 -53 -20 -70 -14 -52
-42 -141 -51 -163 -5 -11 -21 -56 -36 -100 -45 -131 -72 -180 -134 -239 -32
-31 -63 -56 -68 -56 -17 0 -29 24 -36 75 -6 50 -8 58 -47 175 -26 80 -100 239
-140 301 -51 80 -122 92 -202 34 -46 -34 -126 -128 -152 -179 -20 -37 -52
-135 -60 -181 -4 -22 -11 -62 -16 -90 -17 -94 -29 -220 -39 -415 -10 -198 -21
-315 -40 -405 -27 -134 -32 -167 -37 -256 -5 -94 -4 -97 21 -117 27 -20 57
-20 75 2 5 6 12 76 15 156 3 80 10 179 15 220 19 156 32 301 41 490 14 260 26
340 69 451 36 94 100 136 185 122 99 -15 189 -118 224 -258 6 -22 17 -62 26
-90 16 -55 14 -65 -16 -65 -52 0 -140 -34 -181 -70 -65 -58 -91 -118 -95 -223
-4 -95 6 -129 55 -187 45 -54 101 -84 160 -84 50 -1 55 1 103 49 65 65 90 131
90 238 0 72 2 78 23 86 41 16 114 108 166 210 28 55 51 108 51 120 0 18 10 59
40 166 5 17 12 41 15 55 4 14 10 34 15 45 5 11 11 31 14 45 2 14 9 43 15 65
11 40 24 94 42 173 24 110 29 130 39 172 19 78 43 186 60 278 6 28 14 76 20
105 5 28 15 75 20 102 21 103 24 145 8 145 -8 0 -19 -10 -25 -22z m-656 -1639
c21 -11 46 -29 56 -38 17 -17 17 -21 4 -53 -8 -20 -27 -44 -41 -54 -15 -11
-46 -34 -69 -51 -72 -56 -132 -40 -129 35 4 79 25 135 61 159 42 28 70 29 118
2z"/>
</g>
</svg>
