<?xml version="1.0" standalone="no"?>
<!DOCTYPE svg PUBLIC "-//W3C//DTD SVG 20010904//EN"
 "http://www.w3.org/TR/2001/REC-SVG-20010904/DTD/svg10.dtd">
<svg version="1.0" xmlns="http://www.w3.org/2000/svg"
 width="1068.45pt" height="1534.16pt" viewBox="55.55 219.63 1068.45 1534.16"
 preserveAspectRatio="xMidYMid meet">
<metadata>
Created by potrace 1.11, written by Peter Selinger 2001-2013
</metadata>
<g transform="translate(0.000000,1848.000000) scale(0.600000,-0.600000)"
fill="#000000" stroke="none">
<path d="M1618 2510 c-20 -17 -43 -43 -51 -58 -65 -124 -97 -196 -97 -215 0
-7 -4 -17 -8 -22 -5 -6 -15 -30 -22 -55 -8 -25 -16 -49 -20 -55 -3 -5 -17 -44
-30 -85 -13 -41 -27 -79 -32 -84 -4 -6 -8 -19 -8 -31 0 -12 -4 -25 -8 -31 -5
-5 -21 -49 -36 -99 -15 -49 -29 -96 -31 -102 -7 -21 -24 -15 -29 10 -3 12 -8
67 -10 122 -7 128 -20 210 -56 355 -6 25 -15 95 -20 155 -11 136 -21 179 -42
183 -24 5 -60 -64 -106 -203 -23 -66 -72 -183 -111 -260 -80 -157 -86 -185
-42 -185 16 0 34 7 42 16 7 8 43 79 81 157 84 175 82 171 101 175 24 5 38 -32
48 -122 5 -44 13 -117 19 -161 18 -142 31 -268 38 -373 7 -98 15 -121 44 -122
19 0 45 46 66 117 13 43 28 86 33 95 5 10 9 25 9 33 0 8 4 23 9 33 5 9 24 64
42 122 18 58 36 109 41 114 4 6 8 18 8 28 0 10 4 26 10 36 5 9 23 60 40 112
45 137 68 188 131 281 46 69 79 126 79 139 0 21 -47 9 -82 -20z"/>
<path d="M492 1068 c-21 -25 -26 -112 -8 -146 20 -39 41 -45 122 -37 56 7 71
12 99 41 44 43 54 88 28 123 -19 25 -25 26 -125 29 -77 2 -108 -1 -116 -10z"/>
<path d="M313 585 c-3 -9 -3 -32 0 -52 5 -28 -1 -48 -25 -95 -34 -66 -32 -73
29 -95 47 -16 114 -17 147 -2 45 21 72 76 78 156 6 87 -5 114 -40 92 -17 -11
-30 -11 -67 -1 -63 17 -114 15 -122 -3z"/>
</g>
</svg>
