<?xml version="1.0" standalone="no"?>
<!DOCTYPE svg PUBLIC "-//W3C//DTD SVG 20010904//EN"
 "http://www.w3.org/TR/2001/REC-SVG-20010904/DTD/svg10.dtd">
<svg version="1.0" xmlns="http://www.w3.org/2000/svg"
 width="1102.35pt" height="1635.09pt" viewBox="129.28 178.70 1102.35 1635.09"
 preserveAspectRatio="xMidYMid meet">
<metadata>
Created by potrace 1.11, written by Peter Selinger 2001-2013
</metadata>
<g transform="translate(0.000000,1920.000000) scale(0.600000,-0.600000)"
fill="#000000" stroke="none">
<path d="M1314 2720 c-47 -19 -97 -103 -143 -240 -12 -36 -26 -73 -31 -82 -6
-10 -10 -25 -10 -33 0 -8 -4 -23 -9 -33 -5 -9 -19 -51 -31 -92 -12 -41 -26
-84 -30 -95 -4 -11 -13 -40 -20 -65 -7 -25 -16 -56 -20 -70 -4 -14 -13 -45
-20 -70 -7 -25 -16 -56 -20 -70 -4 -14 -13 -45 -20 -70 -6 -25 -16 -53 -21
-62 -5 -10 -9 -29 -9 -42 0 -14 -4 -28 -10 -31 -5 -3 -10 -16 -10 -27 0 -12
-4 -35 -9 -52 -22 -71 -46 -185 -56 -259 -4 -27 -13 -51 -20 -54 -8 -2 -37 15
-65 38 -61 52 -77 47 -96 -26 -26 -100 -22 -116 52 -185 l67 -62 -17 -54 c-40
-126 -177 -193 -262 -129 -54 41 -57 74 -27 255 3 19 10 40 15 47 5 7 7 17 4
22 -13 20 -36 -2 -62 -57 -14 -32 -30 -65 -35 -74 -19 -36 -10 -218 15 -311
29 -106 45 -132 92 -152 46 -19 79 -19 137 1 57 19 87 56 115 139 31 93 62
222 62 259 0 32 21 38 70 21 44 -15 42 -16 60 40 7 22 22 53 32 68 26 36 19
49 -37 76 -25 12 -48 28 -52 36 -6 16 15 119 56 283 6 23 15 59 20 80 18 74
33 127 42 150 5 13 9 34 9 47 0 13 5 27 10 30 6 3 10 17 10 30 0 13 4 34 9 47
5 13 14 43 21 68 7 25 16 56 20 70 4 14 18 59 30 100 12 41 26 83 31 92 5 10
9 27 9 37 0 11 5 23 10 26 6 3 10 16 10 29 0 12 4 26 8 31 4 6 14 28 21 50 28
84 94 207 132 246 41 42 50 73 23 83 -19 7 -23 7 -50 -4z"/>
<path d="M1614 2051 c-106 -84 -144 -157 -144 -276 0 -66 2 -74 25 -89 30 -20
47 -20 127 -1 145 34 160 37 168 29 14 -15 -16 -390 -31 -400 -10 -6 -12 -107
-2 -117 10 -10 43 24 43 44 0 10 4 20 9 23 4 3 11 29 15 58 23 181 41 369 52
536 6 90 5 104 -11 122 -33 37 -119 15 -174 -44 -59 -63 -81 -8 -36 86 14 29
21 56 17 60 -5 5 -31 -9 -58 -31z"/>
<path d="M1780 770 c-14 -4 -48 -8 -76 -9 -59 -1 -76 -15 -99 -80 -23 -65 -19
-98 20 -167 19 -34 35 -76 35 -94 0 -108 104 -84 121 28 4 26 19 104 35 173
33 157 30 170 -36 149z"/>
</g>
</svg>
