<?xml version="1.0" standalone="no"?>
<!DOCTYPE svg PUBLIC "-//W3C//DTD SVG 20010904//EN"
 "http://www.w3.org/TR/2001/REC-SVG-20010904/DTD/svg10.dtd">
<svg version="1.0" xmlns="http://www.w3.org/2000/svg"
 width="650.0pt" height="1300.0pt" viewBox="0 0 650.0 1300.0"
 preserveAspectRatio="xMidYMid meet">
<metadata>
Converted from Gimp path using fromGimpSVG.py
</metadata>
<g fill="#a0a5a7" stroke="none" transform="scale(10)">
<path d="M 52.20,1.50 C 52.20,1.50 52.20,91.10 52.20,91.10 52.20,91.10 49.50,89.63 49.50,89.63 47.07,88.51 44.28,87.83 41.60,87.80 41.60,87.80 40.50,87.70 40.50,87.70 40.50,87.70 39.00,87.80 39.00,87.80 38.03,87.81 37.07,87.90 36.10,88.03 29.78,88.88 23.85,91.78 18.90,95.74 16.05,98.02 13.44,100.65 11.56,103.80 9.79,106.78 8.85,109.85 8.70,113.30 8.70,113.30 8.61,114.20 8.61,114.20 8.61,114.20 8.70,115.00 8.70,115.00 8.70,115.00 8.70,115.80 8.70,115.80 8.98,118.48 10.26,120.97 12.12,122.89 13.50,124.32 15.68,125.71 17.50,126.51 19.23,127.28 21.91,127.99 23.80,128.00 23.80,128.00 25.20,128.10 25.20,128.10 25.20,128.10 26.30,128.00 26.30,128.00 26.30,128.00 27.40,128.00 27.40,128.00 29.24,127.98 32.09,127.44 33.90,126.99 41.90,124.99 50.38,119.51 54.27,112.10 55.40,109.95 56.47,106.23 56.50,103.80 56.50,103.80 56.60,101.80 56.60,101.80 56.60,101.80 56.60,1.50 56.60,1.50 56.60,1.50 52.20,1.50 52.20,1.50Z"/>
</g>
</svg>
