<?xml version="1.0" standalone="no"?>
<!DOCTYPE svg PUBLIC "-//W3C//DTD SVG 20010904//EN"
 "http://www.w3.org/TR/2001/REC-SVG-20010904/DTD/svg10.dtd">
<svg version="1.0" xmlns="http://www.w3.org/2000/svg"
 width="650.0pt" height="1300.0pt" viewBox="0 0 650.0 1300.0"
 preserveAspectRatio="xMidYMid meet">
<metadata>
Converted from Gimp path using fromGimpSVG.py
</metadata>
<g fill="#a0a5a7" stroke="none" transform="scale(10)">
<path d="M 52.30,1.90 C 52.30,1.90 52.30,91.40 52.30,91.40 50.51,90.32 49.03,89.48 47.00,88.87 45.51,88.43 43.35,88.00 41.80,88.00 41.80,88.00 40.40,87.90 40.40,87.90 40.40,87.90 39.00,88.00 39.00,88.00 38.06,88.00 37.13,88.10 36.20,88.23 30.67,88.97 25.76,91.24 21.20,94.40 17.34,97.07 13.68,100.57 11.39,104.70 9.80,107.55 8.94,110.55 8.80,113.80 8.80,113.80 8.71,114.70 8.71,114.70 8.71,114.70 8.79,115.50 8.79,115.50 8.91,117.27 9.13,118.58 9.94,120.20 10.64,121.60 11.72,122.95 12.90,123.97 13.96,124.90 15.72,126.08 17.00,126.67 18.96,127.57 21.64,128.37 23.80,128.40 23.80,128.40 25.30,128.50 25.30,128.50 25.30,128.50 26.40,128.40 26.40,128.40 26.40,128.40 27.50,128.40 27.50,128.40 27.50,128.40 28.50,128.31 28.50,128.31 30.67,128.15 32.81,127.74 34.90,127.14 41.92,125.14 49.74,120.22 53.56,113.90 55.17,111.22 56.56,107.26 56.60,104.10 56.60,104.10 56.70,102.10 56.70,102.10 56.70,102.10 56.70,1.90 56.70,1.90 56.70,1.90 52.30,1.90 52.30,1.90Z M 46.40,95.51 C 46.40,95.51 48.00,95.51 48.00,95.51 49.25,95.51 49.98,96.04 50.25,97.30 50.32,97.63 50.30,98.24 50.30,98.60 50.29,99.63 49.83,100.62 49.33,101.50 48.31,103.31 46.90,104.89 45.49,106.40 45.49,106.40 43.60,108.21 43.60,108.21 43.60,108.21 40.60,110.91 40.60,110.91 36.04,114.84 30.94,118.26 25.10,119.91 23.54,120.36 21.00,120.88 19.40,120.90 19.40,120.90 17.60,120.90 17.60,120.90 16.35,120.90 15.16,120.53 14.78,119.20 14.68,118.85 14.70,118.46 14.70,118.10 14.71,115.01 17.68,111.88 19.80,109.91 22.47,107.42 26.48,104.65 29.60,102.70 33.75,100.09 38.65,97.34 43.40,96.09 43.40,96.09 46.40,95.51 46.40,95.51Z"/>
</g>
</svg>
